<svg width="2850" height="1000" viewBox="0 0 2850 1000" fill="none" xmlns="http://www.w3.org/2000/svg">
<path d="M216.889 348.141H299.207L363.662 475.712H366.342L430.796 348.141H513.114L401.621 551.182V653H328.383V551.182L216.889 348.141ZM544.002 653V348.141H669.935C692.759 348.141 712.458 352.607 729.031 361.539C745.703 370.371 758.554 382.726 767.585 398.604C776.615 414.383 781.131 432.742 781.131 453.681C781.131 474.719 776.516 493.128 767.287 508.907C758.157 524.586 745.107 536.743 728.138 545.377C711.168 554.01 691.023 558.327 667.702 558.327H589.999V500.273H654.007C665.122 500.273 674.4 498.338 681.843 494.468C689.385 490.597 695.092 485.189 698.962 478.242C702.832 471.196 704.767 463.009 704.767 453.681C704.767 444.253 702.832 436.116 698.962 429.268C695.092 422.322 689.385 416.963 681.843 413.192C674.301 409.421 665.023 407.535 654.007 407.535H617.686V653H544.002Z" fill="#4BFFF4"/>
<path d="M949.19 653V348.141H986.106V620.252H1127.82V653H949.19ZM1276.08 657.763C1254.05 657.763 1235.04 652.901 1219.07 643.175C1203.19 633.351 1190.93 619.656 1182.3 602.091C1173.77 584.427 1169.5 563.884 1169.5 540.464C1169.5 517.044 1173.77 496.403 1182.3 478.54C1190.93 460.578 1202.94 446.585 1218.32 436.562C1233.8 426.44 1251.87 421.379 1272.51 421.379C1284.42 421.379 1296.17 423.364 1307.79 427.333C1319.4 431.303 1329.97 437.753 1339.49 446.685C1349.02 455.517 1356.61 467.227 1362.27 481.815C1367.92 496.403 1370.75 514.365 1370.75 535.701V550.587H1194.51V520.22H1335.03C1335.03 507.319 1332.45 495.807 1327.29 485.685C1322.22 475.563 1314.98 467.574 1305.55 461.719C1296.22 455.864 1285.21 452.937 1272.51 452.937C1258.51 452.937 1246.41 456.41 1236.19 463.357C1226.06 470.204 1218.27 479.135 1212.82 490.151C1207.36 501.166 1204.63 512.975 1204.63 525.579V545.823C1204.63 563.091 1207.61 577.728 1213.56 589.736C1219.61 601.644 1228 610.725 1238.72 616.977C1249.43 623.129 1261.89 626.206 1276.08 626.206C1285.31 626.206 1293.64 624.916 1301.09 622.336C1308.63 619.656 1315.13 615.687 1320.59 610.427C1326.05 605.068 1330.26 598.419 1333.24 590.48L1367.18 600.007C1363.61 611.519 1357.6 621.641 1349.17 630.374C1340.73 639.007 1330.31 645.756 1317.91 650.618C1305.5 655.382 1291.56 657.763 1276.08 657.763ZM1491.47 658.359C1476.99 658.359 1463.84 655.63 1452.03 650.172C1440.22 644.614 1430.84 636.626 1423.89 626.206C1416.95 615.687 1413.47 602.984 1413.47 588.098C1413.47 574.999 1416.05 564.381 1421.21 556.243C1426.37 548.006 1433.27 541.556 1441.91 536.892C1450.54 532.228 1460.07 528.754 1470.49 526.472C1481.01 524.09 1491.57 522.205 1502.19 520.815C1516.09 519.029 1527.35 517.689 1535.98 516.796C1544.72 515.804 1551.07 514.166 1555.04 511.884C1559.11 509.601 1561.14 505.632 1561.14 499.975V498.784C1561.14 484.097 1557.12 472.685 1549.08 464.547C1541.14 456.41 1529.09 452.341 1512.91 452.341C1496.14 452.341 1482.99 456.013 1473.46 463.357C1463.94 470.7 1457.24 478.54 1453.37 486.876L1420.02 474.967C1425.98 461.074 1433.92 450.257 1443.84 442.517C1453.86 434.677 1464.78 429.219 1476.59 426.142C1488.5 422.967 1500.21 421.379 1511.72 421.379C1519.06 421.379 1527.5 422.272 1537.03 424.058C1546.65 425.745 1555.93 429.268 1564.86 434.627C1573.89 439.986 1581.38 448.074 1587.34 458.891C1593.29 469.708 1596.27 484.196 1596.27 502.357V653H1561.14V622.038H1559.35C1556.97 627 1553 632.309 1547.45 637.965C1541.89 643.622 1534.49 648.435 1525.27 652.405C1516.04 656.374 1504.77 658.359 1491.47 658.359ZM1496.83 626.801C1510.73 626.801 1522.44 624.072 1531.96 618.614C1541.59 613.156 1548.83 606.11 1553.7 597.476C1558.66 588.843 1561.14 579.762 1561.14 570.236V538.083C1559.65 539.869 1556.38 541.506 1551.32 542.995C1546.35 544.384 1540.6 545.625 1534.05 546.716C1527.6 547.709 1521.3 548.602 1515.14 549.396C1509.09 550.09 1504.18 550.686 1500.41 551.182C1491.28 552.373 1482.74 554.308 1474.8 556.987C1466.96 559.568 1460.61 563.487 1455.75 568.747C1450.99 573.907 1448.6 580.953 1448.6 589.885C1448.6 602.091 1453.12 611.32 1462.15 617.572C1471.28 623.725 1482.84 626.801 1496.83 626.801ZM1660.39 653V424.356H1694.33V458.891H1696.71C1700.88 447.578 1708.42 438.398 1719.34 431.352C1730.25 424.306 1742.56 420.784 1756.25 420.784C1758.83 420.784 1762.06 420.833 1765.93 420.932C1769.8 421.032 1772.73 421.18 1774.71 421.379V457.105C1773.52 456.807 1770.79 456.36 1766.52 455.765C1762.36 455.07 1757.94 454.723 1753.28 454.723C1742.16 454.723 1732.24 457.055 1723.51 461.719C1714.87 466.284 1708.02 472.635 1702.96 480.773C1698 488.811 1695.52 497.991 1695.52 508.311V653H1660.39ZM1851.48 515.456V653H1816.35V424.356H1850.29V460.082H1853.27C1858.63 448.471 1866.77 439.143 1877.68 432.097C1888.6 424.952 1902.69 421.379 1919.96 421.379C1935.44 421.379 1948.99 424.555 1960.6 430.906C1972.21 437.158 1981.24 446.685 1987.69 459.486C1994.14 472.189 1997.36 488.265 1997.36 507.716V653H1962.23V510.098C1962.23 492.136 1957.57 478.143 1948.24 468.12C1938.91 457.998 1926.11 452.937 1909.84 452.937C1898.62 452.937 1888.6 455.368 1879.77 460.231C1871.03 465.093 1864.14 472.189 1859.08 481.517C1854.02 490.845 1851.48 502.159 1851.48 515.456ZM2061.56 653V424.356H2096.69V653H2061.56ZM2079.42 386.249C2072.57 386.249 2066.67 383.917 2061.71 379.253C2056.85 374.588 2054.41 368.981 2054.41 362.432C2054.41 355.882 2056.85 350.275 2061.71 345.611C2066.67 340.947 2072.57 338.615 2079.42 338.615C2086.27 338.615 2092.12 340.947 2096.99 345.611C2101.95 350.275 2104.43 355.882 2104.43 362.432C2104.43 368.981 2101.95 374.588 2096.99 379.253C2092.12 383.917 2086.27 386.249 2079.42 386.249ZM2196.16 515.456V653H2161.03V424.356H2194.97V460.082H2197.95C2203.31 448.471 2211.45 439.143 2222.36 432.097C2233.28 424.952 2247.37 421.379 2264.64 421.379C2280.12 421.379 2293.66 424.555 2305.27 430.906C2316.89 437.158 2325.92 446.685 2332.37 459.486C2338.82 472.189 2342.04 488.265 2342.04 507.716V653H2306.91V510.098C2306.91 492.136 2302.25 478.143 2292.92 468.12C2283.59 457.998 2270.79 452.937 2254.51 452.937C2243.3 452.937 2233.28 455.368 2224.45 460.231C2215.71 465.093 2208.82 472.189 2203.75 481.517C2198.69 490.845 2196.16 502.159 2196.16 515.456ZM2498.53 743.505C2481.56 743.505 2466.97 741.322 2454.76 736.955C2442.56 732.688 2432.39 727.031 2424.25 719.986C2416.21 713.039 2409.81 705.596 2405.05 697.657L2433.03 678.008C2436.21 682.176 2440.23 686.939 2445.09 692.298C2449.95 697.756 2456.6 702.47 2465.03 706.44C2473.57 710.508 2484.73 712.543 2498.53 712.543C2516.99 712.543 2532.22 708.077 2544.23 699.146C2556.23 690.214 2562.24 676.222 2562.24 657.168V610.725H2559.26C2556.68 614.893 2553.01 620.053 2548.25 626.206C2543.58 632.259 2536.83 637.668 2528 642.431C2519.27 647.095 2507.46 649.427 2492.57 649.427C2474.12 649.427 2457.54 645.061 2442.86 636.328C2428.27 627.595 2416.71 614.893 2408.17 598.221C2399.74 581.549 2395.52 561.304 2395.52 537.487C2395.52 514.067 2399.64 493.674 2407.87 476.307C2416.11 458.841 2427.57 445.345 2442.26 435.818C2456.95 426.192 2473.92 421.379 2493.17 421.379C2508.05 421.379 2519.86 423.86 2528.6 428.822C2537.43 433.684 2544.18 439.242 2548.84 445.494C2553.6 451.646 2557.28 456.708 2559.86 460.677H2563.43V424.356H2597.37V659.55C2597.37 679.199 2592.9 695.176 2583.97 707.482C2575.14 719.886 2563.23 728.967 2548.25 734.722C2533.36 740.577 2516.79 743.505 2498.53 743.505ZM2497.34 617.87C2511.43 617.87 2523.34 614.645 2533.06 608.194C2542.79 601.744 2550.18 592.465 2555.24 580.358C2560.3 568.251 2562.83 553.762 2562.83 536.892C2562.83 520.418 2560.35 505.88 2555.39 493.277C2550.43 480.674 2543.09 470.799 2533.36 463.654C2523.63 456.509 2511.63 452.937 2497.34 452.937C2482.45 452.937 2470.05 456.708 2460.12 464.25C2450.3 471.792 2442.9 481.914 2437.94 494.616C2433.08 507.319 2430.65 521.411 2430.65 536.892C2430.65 552.77 2433.13 566.812 2438.09 579.018C2443.15 591.125 2450.6 600.652 2460.42 607.599C2470.34 614.446 2482.65 617.87 2497.34 617.87Z" fill="#00D1FF"/>
</svg>
